<?xml version="1.0" standalone="no"?>
<!DOCTYPE svg PUBLIC "-//W3C//DTD SVG 20010904//EN"
 "http://www.w3.org/TR/2001/REC-SVG-20010904/DTD/svg10.dtd">
<svg version="1.0" xmlns="http://www.w3.org/2000/svg"
 width="301.000000pt" height="75.000000pt" viewBox="0 0 301.000000 75.000000"
 preserveAspectRatio="xMidYMid meet">

<g transform="translate(0.000000,75.000000) scale(0.100000,-0.100000)"
fill="#000000" stroke="none">
<path d="M130 606 c0 -9 63 -36 69 -30 9 8 -30 34 -51 34 -10 0 -18 -2 -18 -4z"/>
<path d="M1170 597 l-35 -12 0 -160 c0 -137 3 -164 18 -190 10 -16 15 -21 11
-10 -4 11 -9 91 -12 177 l-4 158 31 17 c17 10 31 21 31 26 0 4 -1 7 -2 6 -2 0
-19 -6 -38 -12z"/>
<path d="M1475 596 l-40 -12 -5 -169 c-6 -217 -19 -244 -126 -275 -34 -10 -48
-9 -90 5 -27 9 -61 28 -76 43 -32 30 -37 17 -8 -21 28 -35 80 -50 156 -45 68
4 100 21 138 72 19 24 22 46 26 199 5 186 2 177 65 200 6 3 8 7 5 9 -3 3 -23
0 -45 -6z"/>
<path d="M242 588 c-12 -12 -17 -134 -6 -162 13 -33 19 -13 19 61 l0 78 49 3
c38 3 56 -2 78 -18 30 -22 34 -20 18 10 -18 35 -131 55 -158 28z"/>
<path d="M1050 585 c35 -20 62 -19 36 0 -11 8 -29 15 -40 15 -19 -1 -19 -2 4
-15z"/>
<path d="M1356 585 c10 -8 26 -14 34 -14 11 0 10 3 -4 14 -11 8 -27 15 -35 15
-11 0 -10 -4 5 -15z"/>
<path d="M1540 597 c0 -9 63 -38 68 -32 3 3 1 9 -4 14 -11 11 -64 26 -64 18z"/>
<path d="M2160 588 c-109 -31 -169 -150 -135 -266 21 -68 36 -76 18 -9 -25 96
17 206 92 242 28 12 54 16 101 13 66 -4 83 5 38 22 -31 12 -67 11 -114 -2z"/>
<path d="M2640 588 c-109 -31 -169 -150 -135 -266 21 -68 36 -76 18 -9 -25 96
17 206 92 242 28 12 54 16 101 13 66 -4 83 5 38 22 -31 12 -67 11 -114 -2z"/>
<path d="M700 574 c-46 -20 -68 -41 -93 -89 -26 -51 -28 -146 -3 -192 9 -18
18 -33 20 -33 2 0 -3 24 -11 52 -23 89 11 192 74 230 73 42 158 26 213 -40 34
-42 39 -35 10 14 -40 63 -136 90 -210 58z"/>
<path d="M1652 577 c-15 -18 -12 -169 3 -174 6 -2 9 20 7 58 -2 33 -1 72 3 86
6 25 8 26 66 20 37 -3 68 -12 80 -23 27 -25 37 -8 11 18 -28 29 -150 39 -170
15z"/>
<path d="M2336 578 c-3 -7 -7 -32 -9 -55 -4 -33 -2 -43 9 -43 10 0 14 14 14
55 0 52 -6 70 -14 43z"/>
<path d="M2816 578 c-3 -7 -7 -32 -9 -55 -4 -33 -2 -43 9 -43 10 0 14 14 14
55 0 52 -6 70 -14 43z"/>
<path d="M450 523 c0 -52 -16 -88 -47 -108 -26 -17 -30 -35 -9 -35 8 0 28 16
45 35 24 28 31 45 31 78 0 23 -5 49 -10 57 -7 11 -10 4 -10 -27z"/>
<path d="M1880 502 c0 -56 -3 -67 -28 -90 -15 -15 -36 -32 -46 -37 -17 -10
-15 -17 28 -103 25 -51 48 -92 51 -92 3 0 -14 39 -38 86 -34 70 -39 88 -27 92
8 3 30 20 48 38 28 28 32 38 32 86 0 29 -5 60 -10 68 -7 11 -10 -4 -10 -48z"/>
<path d="M966 505 c4 -11 9 -56 12 -101 3 -68 0 -89 -18 -132 -28 -64 -72
-104 -138 -126 -47 -16 -54 -16 -99 -1 -62 21 -91 40 -125 79 -15 17 -28 26
-28 19 0 -22 64 -86 105 -104 49 -23 133 -24 183 -4 55 24 109 81 128 138 21
62 15 178 -10 222 -9 17 -14 21 -10 10z"/>
<path d="M241 366 c-14 -17 -11 -178 4 -183 6 -2 9 22 7 63 -2 36 -1 77 3 91
6 24 8 25 58 20 28 -4 64 -16 79 -27 16 -11 28 -16 28 -11 0 14 -30 41 -57 52
-37 14 -109 11 -122 -5z"/>
<path d="M1651 356 c-14 -17 -11 -168 4 -173 6 -2 9 20 7 58 -5 88 2 109 38
109 34 0 40 -8 105 -139 l40 -81 55 1 55 1 -45 10 c-25 6 -49 11 -55 13 -5 2
-32 48 -60 102 -27 54 -54 101 -60 105 -17 13 -72 9 -84 -6z"/>
<path d="M2230 346 c0 -11 60 -34 66 -25 3 5 -7 14 -21 19 -28 11 -45 13 -45
6z"/>
<path d="M2360 341 c-24 -6 -25 -12 -30 -90 l-5 -83 -54 -20 c-53 -20 -55 -20
-115 -2 -45 14 -74 31 -108 64 -52 50 -65 42 -21 -11 60 -70 191 -100 283 -63
l40 16 0 79 c0 79 0 79 33 99 32 20 24 24 -23 11z"/>
<path d="M2710 346 c0 -11 60 -34 66 -25 3 5 -7 14 -21 19 -28 11 -45 13 -45
6z"/>
<path d="M2840 341 c-24 -6 -25 -12 -30 -90 l-5 -83 -54 -20 c-53 -20 -55 -20
-115 -2 -45 14 -74 31 -108 64 -52 50 -65 42 -21 -11 60 -70 191 -100 283 -63
l40 16 0 79 c0 79 0 79 33 99 32 20 24 24 -23 11z"/>
<path d="M460 284 c0 -96 -54 -133 -197 -135 -140 -2 -156 -17 -18 -18 139 -1
192 16 219 68 18 34 21 98 6 121 -7 11 -10 1 -10 -36z"/>
<path d="M1560 140 c-17 -5 6 -8 73 -9 53 -1 97 2 97 7 0 10 -140 12 -170 2z"/>
</g>
</svg>
